<?xml version="1.0" encoding="utf-8"?>
<!-- Generator: Adobe Illustrator 24.0.0, SVG Export Plug-In . SVG Version: 6.00 Build 0)  -->
<svg version="1.1" id="Layer_1" xmlns="http://www.w3.org/2000/svg" xmlns:xlink="http://www.w3.org/1999/xlink" x="0px" y="0px"
	 viewBox="0 0 512.7 512.7" style="enable-background:new 0 0 512.7 512.7;" xml:space="preserve">
<style type="text/css">
	.st0{fill:#88FFFF;}
	.st1{fill:#282828;}
</style>
<rect x="0.3" y="0.3" class="st0" width="512" height="512"/>
<path class="st0" d="M405.1,307c-3.2,5.8-9.1,9.3-15.7,9.3h-58.1c-0.4,0-0.9,0-1.3,0c0,0,0,0,0,0c-0.5,0-1,0-1.6,0h-74.6
	c-0.8,0-1.5,0-2.2-0.1c-0.9,0.1-1.7,0.1-2.6,0.1H146.8c-5.8,0-11.4-1.6-16.2-4.5c-4.5-2.8-8.3-6.8-10.9-11.5
	c-2.6-4.7-3.9-10-3.8-15.3c0.1-5.6,1.8-11.2,4.9-16.1l48.7-75.8v-43.3c-6.7-2.1-11.5-8.4-11.5-15.8c0-9.1,7.4-16.6,16.6-16.6h46.6
	c9.1,0,16.6,7.4,16.6,16.6c0,7.4-4.8,13.6-11.5,15.8v43.3l32.6,50.7l11.4-17.7v-31.3c-4.9-1.7-8.4-6.3-8.4-11.7
	c0-6.8,5.5-12.4,12.4-12.4h34c6.8,0,12.4,5.5,12.4,12.4c0,5.4-3.5,10.1-8.4,11.7v31.3l22.2,34.6l9.6-14.9v-24.2
	c-3.8-1.3-6.5-5-6.5-9.3c0-5.4,4.4-9.8,9.8-9.8h26.5c5.4,0,9.8,4.4,9.8,9.8c0,4.3-2.7,7.9-6.5,9.3v24.2l27.6,43
	C408,294.3,408.3,301.1,405.1,307z"/>
<g>
	<g>
		<g>
			<g>
				<path class="st1" d="M274.9,268.8l-8.2-12.7l-3.9-6.1l-0.1-0.1l-4-6.2l-32.6-50.7v-46.8c0-2.4-1.9-4.3-4.3-4.3h-48.1
					c-2.4,0-4.3,1.9-4.3,4.3v46.8l-48.7,75.8c-3.1,4.9-4.8,10.4-4.9,16.1c-0.1,5.3,1.2,10.6,3.8,15.3c2.6,4.7,6.3,8.7,10.9,11.5
					c4.8,3,10.4,4.5,16.2,4.5H249c0.9,0,1.7,0,2.6-0.1c4.9-0.4,9.5-1.9,13.6-4.4c1.1-0.7,2.2-1.4,3.2-2.3c3.1-2.5,5.7-5.7,7.7-9.2
					c2.6-4.7,3.9-10,3.8-15.3C279.7,279.3,278,273.7,274.9,268.8z M268.4,296.1c-3.9,7.2-11.2,11.6-19.5,11.6H146.8
					c-8.2,0-15.5-4.3-19.5-11.6c-3.9-7.2-3.7-15.7,0.8-22.6l20.5-31.9c0,0,0,0,0,0l9.9-15.4l18.9-29.5c0.4-0.7,0.7-1.5,0.7-2.3
					v-43.8h39.4v43.8c0,0.8,0.2,1.6,0.7,2.3l1.2,1.9l27.2,42.3l4.7,7.4l2.2,3.5l1,1.6l3,4.7l0.7,1.1l9.3,14.4
					C272.1,280.4,272.4,288.9,268.4,296.1z"/>
			</g>
			<g>
				<path class="st1" d="M221.1,117.4h-46.6c-9.1,0-16.6,7.4-16.6,16.6c0,7.4,4.8,13.6,11.5,15.8c1.6,0.5,3.3,0.8,5.1,0.8h46.6
					c1.8,0,3.5-0.3,5.1-0.8c6.7-2.1,11.5-8.4,11.5-15.8C237.7,124.8,230.3,117.4,221.1,117.4z M221.1,141.9h-46.6c-4.4,0-8-3.6-8-8
					c0-4.4,3.6-8,8-8h46.6c4.4,0,8,3.6,8,8C229.1,138.4,225.5,141.9,221.1,141.9z"/>
			</g>
			<g>
				<path class="st1" d="M221.9,174.5h-12.8c-2.4,0-4.3-1.9-4.3-4.3s1.9-4.3,4.3-4.3h12.8c2.4,0,4.3,1.9,4.3,4.3
					S224.3,174.5,221.9,174.5z"/>
			</g>
			<g>
				<path class="st1" d="M221.9,198.6h-12.8c-2.4,0-4.3-1.9-4.3-4.3c0-2.4,1.9-4.3,4.3-4.3h12.8c2.4,0,4.3,1.9,4.3,4.3
					C226.2,196.6,224.3,198.6,221.9,198.6z"/>
			</g>
		</g>
		<g>
			<path class="st1" d="M223.3,257.1c-13.7,0-24.9-7.5-34.8-14.1c-7.3-4.9-14.2-9.5-20.2-9.5c-13.4,0-19.5,7.7-19.8,8.1l0,0
				l-6.9-5.2c0.4-0.5,8.8-11.5,26.7-11.5c8.5,0,16.5,5.3,25,11c9.3,6.2,18.9,12.7,30,12.7c8.1,0,15-1.7,19.9-4.8
				c3.6-2.3,4.9-4.7,4.9-4.7c0,0,0,0.1,0,0.1l7.7,3.9c-0.2,0.4-2.1,4.1-7.2,7.5C242.1,254.9,233.6,257.1,223.3,257.1z"/>
		</g>
		<g>
			<circle class="st1" cx="162.2" cy="263.5" r="5.7"/>
		</g>
		<g>
			<circle class="st1" cx="195.4" cy="285.5" r="5.7"/>
		</g>
		<g>
			<circle class="st1" cx="228.7" cy="274.9" r="5.7"/>
		</g>
	</g>
	<g>
		<g>
			<g>
				<path class="st1" d="M347.5,281.3l-7.5-11.7l-2.4-3.7l-0.8-1.3l-2.5-3.9L312,226.1V192c0-1.9-1.5-3.4-3.4-3.4h-35.1
					c-1.9,0-3.4,1.5-3.4,3.4v34.1l-11.4,17.7l-5.1,8l-3.9,6.1l-15.1,23.4c-4.6,7.1-4.9,15.8-0.8,23.2c0.6,1.1,1.3,2.2,2.1,3.2
					c3.8,4.9,9.4,7.9,15.6,8.5c0.7,0.1,1.5,0.1,2.2,0.1h74.6c0.5,0,1,0,1.6,0c0,0,0,0,0,0c5.1-0.3,9.8-2.3,13.5-5.6
					c1.9-1.7,3.6-3.8,4.9-6.2C352.4,297,352.1,288.4,347.5,281.3z M342.3,301.2c-2.8,5.2-8.1,8.3-14,8.3h-74.6
					c-2.7,0-5.2-0.6-7.5-1.8c-2.7-1.4-5-3.6-6.5-6.5c-2.8-5.2-2.6-11.3,0.6-16.2l15-23.3c0,0,0,0,0,0l2.3-3.6l5.1-8l0.1-0.2
					l13.5-20.9c0.4-0.5,0.5-1.2,0.5-1.8v-31.7h28.3v31.7c0,0.7,0.2,1.3,0.5,1.8l1,1.5l19.6,30.6l3.7,5.8l0.1,0.2l0.5,0.8l2.9,4.5
					l0.2,0.3l8,12.4C345,289.9,345.2,296,342.3,301.2z"/>
			</g>
			<g>
				<path class="st1" d="M308.1,170.7h-34c-6.8,0-12.4,5.5-12.4,12.4c0,5.4,3.5,10.1,8.4,11.7c1.2,0.4,2.6,0.7,4,0.7h34
					c1.4,0,2.7-0.2,4-0.7c4.9-1.7,8.4-6.3,8.4-11.7C320.4,176.2,314.9,170.7,308.1,170.7z M308.1,188.6h-34c-3.1,0-5.5-2.5-5.5-5.5
					c0-3.1,2.5-5.5,5.5-5.5h34c3.1,0,5.5,2.5,5.5,5.5C313.6,186.1,311.1,188.6,308.1,188.6z"/>
			</g>
			<g>
				<path class="st1" d="M308.6,212.9h-9.3c-1.9,0-3.4-1.5-3.4-3.4c0-1.9,1.5-3.4,3.4-3.4h9.3c1.9,0,3.4,1.5,3.4,3.4
					C312,211.4,310.5,212.9,308.6,212.9z"/>
			</g>
			<g>
				<path class="st1" d="M308.6,230.4h-9.3c-1.9,0-3.4-1.5-3.4-3.4c0-1.9,1.5-3.4,3.4-3.4h9.3c1.9,0,3.4,1.5,3.4,3.4
					C312,228.9,310.5,230.4,308.6,230.4z"/>
			</g>
		</g>
		<g>
			<path class="st1" d="M309.6,273.1c-10.1,0-18.3-5.5-25.5-10.3c-5.3-3.5-10.3-6.9-14.6-6.9c-9.6,0-14.2,5.7-14.2,5.8
				c-1.1,1.5-3.3,1.8-4.8,0.7c-1.5-1.1-1.8-3.3-0.7-4.8c0.3-0.3,6.5-8.5,19.7-8.5c6.3,0,12.2,3.9,18.4,8c6.8,4.5,13.7,9.2,21.7,9.2
				c14,0,17.7-6.5,17.9-6.8c0,0,0,0.1,0,0.1l6.1,3C333.3,263.1,328.1,273.1,309.6,273.1z"/>
		</g>
		<g>
			<circle class="st1" cx="289.2" cy="293.6" r="4.1"/>
		</g>
		<g>
			<circle class="st1" cx="313.6" cy="285.8" r="4.1"/>
		</g>
	</g>
	<g>
		<g>
			<g>
				<path class="st1" d="M404.5,288.7l-27.6-43v-26.5c0-1.6-1.3-2.8-2.8-2.8h-27.3c-1.6,0-2.8,1.3-2.8,2.8v26.5l-9.6,14.9l-1.1,1.8
					l-2.5,3.9l-0.4,0.6l-12.5,19.4l-1.5,2.3c-0.1,0.2-0.2,0.4-0.4,0.6c-3.3,5.5-3.4,12-0.3,17.7c0.5,0.9,1,1.7,1.7,2.5
					c3.1,4,7.6,6.4,12.7,6.8c0,0,0,0,0,0c0.4,0,0.9,0,1.3,0h58.1c6.7,0,12.5-3.5,15.7-9.3C408.3,301.1,408,294.3,404.5,288.7z
					 M400.1,304.2c-2.2,4-6.2,6.4-10.7,6.4h-58.1c-1.8,0-3.6-0.4-5.2-1.1c-2.3-1.1-4.3-2.9-5.6-5.2c-2.2-4-2-8.6,0.4-12.5l11.7-18.2
					c0,0,0,0,0,0l0.9-1.4l4-6.3l1.2-1.8l10.3-16c0.3-0.5,0.5-1,0.5-1.5V222h21.7v24.5c0,0.5,0.2,1.1,0.4,1.5l0.8,1.3l15.2,23.6
					l3.1,4.8l9,14C402.1,295.6,402.3,300.3,400.1,304.2z"/>
			</g>
			<g>
				<path class="st1" d="M373.6,202.4h-26.5c-5.4,0-9.8,4.4-9.8,9.8c0,4.3,2.7,7.9,6.5,9.3c1,0.4,2.1,0.6,3.3,0.6h26.5
					c1.1,0,2.2-0.2,3.3-0.6c3.8-1.3,6.5-5,6.5-9.3C383.4,206.8,379,202.4,373.6,202.4z M373.6,216.4h-26.5c-2.3,0-4.1-1.9-4.1-4.1
					c0-2.3,1.9-4.1,4.1-4.1h26.5c2.3,0,4.1,1.9,4.1,4.1C377.7,214.5,375.8,216.4,373.6,216.4z"/>
			</g>
			<g>
				<path class="st1" d="M374,235.7h-7.3c-1.6,0-2.8-1.3-2.8-2.8c0-1.6,1.3-2.8,2.8-2.8h7.3c1.6,0,2.8,1.3,2.8,2.8
					C376.8,234.4,375.6,235.7,374,235.7z"/>
			</g>
			<g>
				<path class="st1" d="M374,249.3h-7.3c-1.6,0-2.8-1.3-2.8-2.8c0-1.6,1.3-2.8,2.8-2.8h7.3c1.6,0,2.8,1.3,2.8,2.8
					C376.8,248.1,375.6,249.3,374,249.3z"/>
			</g>
		</g>
		<g>
			<path class="st1" d="M374.8,282.7c-7.9,0-14.3-4.3-20-8.1c-4.1-2.7-8-5.3-11.3-5.3c-7.4,0-10.8,4.3-11,4.4l0,0l-4.5-3.4
				c0.2-0.3,5.1-6.7,15.5-6.7c5,0,9.6,3.1,14.4,6.3c5.2,3.5,10.7,7.1,16.8,7.1c10.8,0,13.6-5,13.8-5.2c0,0,0,0.1,0,0.1l5.1,2.5
				C393.4,274.7,389.3,282.7,374.8,282.7z"/>
		</g>
		<g>
			<circle class="st1" cx="358.9" cy="298.4" r="3.2"/>
		</g>
		<g>
			<circle class="st1" cx="377.9" cy="292.3" r="3.2"/>
		</g>
	</g>
</g>
<g>
	<g>
		<path class="st1" d="M115.9,373.4v-36.7h16.5c2.9,0,5.2,0.5,6.9,1.5c1.7,1,2.9,2.2,3.6,3.7c0.7,1.5,1.1,3,1.1,4.5
			c0,2.4-0.5,4.2-1.5,5.5c-1,1.3-2.1,2.2-3.4,2.8c1,0.3,2.1,0.9,3.1,1.6c1.1,0.7,1.9,1.7,2.6,2.9c0.7,1.2,1.1,2.8,1.1,4.6
			c0,2.7-1,5-3.1,6.9c-2.1,1.9-5.2,2.8-9.4,2.8H115.9z M120.1,353.1h12.3c1.3,0,2.5-0.2,3.6-0.7c1.1-0.4,2-1.1,2.7-2.1
			c0.7-0.9,1.1-2.2,1.1-3.6c0-1-0.2-2-0.7-2.9c-0.5-0.9-1.2-1.7-2.2-2.3c-1-0.6-2.4-0.9-4.1-0.9h-12.8V353.1z M120.1,369.4h13.7
			c2.5,0,4.5-0.5,5.9-1.6c1.4-1.1,2.1-2.5,2.1-4.5c0-1.7-0.7-3.3-2-4.6c-1.3-1.3-3.5-2-6.4-2h-13.3V369.4z"/>
		<path class="st1" d="M152.6,373.4v-36.7h17.6c3.8,0,6.8,1,9,3.1c2.2,2.1,3.4,4.9,3.4,8.4c0,2.4-0.5,4.3-1.4,5.7
			c-0.9,1.4-2,2.5-3.4,3.2c-1.4,0.7-2.7,1.2-4.1,1.6l9.7,14.8h-4.9l-8.9-14.1h-12.8v14.1H152.6z M156.8,355.3h12.7
			c1.3,0,2.7-0.2,4.1-0.6c1.4-0.4,2.5-1.1,3.5-2.2c0.9-1.1,1.4-2.5,1.4-4.4c0-2.3-0.8-4.2-2.4-5.5c-1.6-1.3-3.7-2-6.3-2h-12.9V355.3
			z"/>
		<path class="st1" d="M189.7,373.4v-36.7h27v4h-22.9V353h20.4v4h-20.4v12.4h22.9v4H189.7z"/>
		<path class="st1" d="M230.9,373.4l-11.4-36.7h4.4l9.4,30.8l9.9-30.8h4.8l9.9,30.8l9.4-30.8h4.4l-11.4,36.7h-4.7l-9.9-30.8
			l-9.9,30.8H230.9z"/>
		<path class="st1" d="M276.6,373.4v-36.7h4.2v32.7h20v4H276.6z"/>
		<path class="st1" d="M301.9,373.4l15.6-36.7h5.2l15.6,36.7h-4.6l-4.5-10.7H311l-4.5,10.7H301.9z M312.6,358.9h15l-7.5-17.9
			L312.6,358.9z"/>
		<path class="st1" d="M342.9,373.4v-36.7h16.5c2.9,0,5.2,0.5,6.9,1.5c1.7,1,2.9,2.2,3.6,3.7c0.7,1.5,1.1,3,1.1,4.5
			c0,2.4-0.5,4.2-1.5,5.5c-1,1.3-2.1,2.2-3.4,2.8c1,0.3,2.1,0.9,3.1,1.6c1.1,0.7,1.9,1.7,2.6,2.9c0.7,1.2,1.1,2.8,1.1,4.6
			c0,2.7-1,5-3.1,6.9c-2.1,1.9-5.2,2.8-9.4,2.8H342.9z M347.1,353.1h12.3c1.3,0,2.5-0.2,3.6-0.7c1.1-0.4,2-1.1,2.7-2.1
			c0.7-0.9,1.1-2.2,1.1-3.6c0-1-0.2-2-0.7-2.9c-0.5-0.9-1.2-1.7-2.2-2.3c-1-0.6-2.4-0.9-4.1-0.9h-12.8V353.1z M347.1,369.4h13.7
			c2.5,0,4.5-0.5,5.9-1.6c1.4-1.1,2.1-2.5,2.1-4.5c0-1.7-0.7-3.3-2-4.6c-1.3-1.3-3.5-2-6.4-2h-13.3V369.4z"/>
		<path class="st1" d="M392.8,373.8c-3.6,0-6.6-0.5-8.8-1.5c-2.3-1-3.9-2.3-5.1-4.1c-1.1-1.7-1.8-3.7-2-5.9h4.3
			c0.1,1.8,0.7,3.2,1.8,4.3c1.1,1.1,2.5,1.9,4.2,2.4c1.8,0.5,3.7,0.8,5.8,0.8c3.1,0,5.6-0.5,7.4-1.6c1.8-1.1,2.7-2.7,2.7-4.9
			c0-1.3-0.5-2.3-1.4-3.1c-0.9-0.8-2.1-1.5-3.6-2c-1.5-0.5-3.1-1-4.9-1.4c-1.8-0.4-3.6-0.9-5.4-1.4c-1.8-0.5-3.4-1.1-4.9-1.8
			c-1.5-0.7-2.7-1.7-3.6-2.9c-0.9-1.2-1.4-2.7-1.4-4.5c0-3,1.2-5.4,3.5-7.3c2.3-1.9,5.8-2.8,10.3-2.8c3.3,0,5.9,0.5,8,1.5
			c2.1,1,3.7,2.3,4.7,3.9c1.1,1.6,1.6,3.3,1.7,5.2h-4.3c-0.2-1.8-1.1-3.4-2.8-4.7c-1.6-1.3-4.1-1.9-7.5-1.9c-2.1,0-3.8,0.2-5,0.6
			c-1.3,0.4-2.3,0.9-3,1.6c-0.7,0.6-1.1,1.3-1.4,2c-0.2,0.7-0.4,1.4-0.4,2c0,1.2,0.5,2.2,1.4,3c0.9,0.8,2.1,1.4,3.6,1.9
			c1.5,0.5,3.2,1,5,1.4c1.8,0.4,3.6,0.9,5.4,1.4c1.8,0.5,3.4,1.1,4.9,1.9c1.5,0.8,2.7,1.7,3.6,2.9c0.9,1.2,1.4,2.7,1.4,4.5
			c0,3.4-1.3,6-3.9,7.9S397.3,373.8,392.8,373.8z"/>
	</g>
	<g>
		<path class="st1" d="M183.3,404.8v-19.5h14.1v2.1h-11.9v6.8h10.6v2.2h-10.6v8.5H183.3z"/>
		<path class="st1" d="M206.4,404.8v-19.5h9.3c2,0,3.6,0.5,4.8,1.6c1.2,1.1,1.8,2.6,1.8,4.4c0,1.3-0.2,2.3-0.7,3
			c-0.5,0.7-1.1,1.3-1.8,1.7c-0.7,0.4-1.5,0.7-2.2,0.8l5.1,7.9h-2.6l-4.7-7.5h-6.8v7.5H206.4z M208.6,395.2h6.7
			c0.7,0,1.4-0.1,2.2-0.3c0.7-0.2,1.3-0.6,1.8-1.2c0.5-0.6,0.8-1.3,0.8-2.3c0-1.2-0.4-2.2-1.3-2.9c-0.8-0.7-2-1.1-3.4-1.1h-6.9
			V395.2z"/>
		<path class="st1" d="M232,404.8v-19.5h14.3v2.1h-12.1v6.5H245v2.2h-10.8v6.6h12.1v2.1H232z"/>
		<path class="st1" d="M255.8,404.8v-19.5h14.3v2.1H258v6.5h10.8v2.2H258v6.6h12.1v2.1H255.8z"/>
		<path class="st1" d="M278,404.8v-2.1l12.7-15.3h-12.5v-2.1h15.3v2.1l-12.7,15.3h12.7v2.1H278z"/>
		<path class="st1" d="M302.6,404.8v-19.5H317v2.1h-12.1v6.5h10.8v2.2h-10.8v6.6H317v2.1H302.6z"/>
		<path class="st1" d="M326.4,404.8v-19.5h9.3c2,0,3.6,0.5,4.8,1.6c1.2,1.1,1.8,2.6,1.8,4.4c0,1.3-0.2,2.3-0.7,3
			c-0.5,0.7-1.1,1.3-1.8,1.7c-0.7,0.4-1.5,0.7-2.2,0.8l5.1,7.9h-2.6l-4.7-7.5h-6.8v7.5H326.4z M328.7,395.2h6.7
			c0.7,0,1.4-0.1,2.2-0.3c0.7-0.2,1.3-0.6,1.8-1.2c0.5-0.6,0.8-1.3,0.8-2.3c0-1.2-0.4-2.2-1.3-2.9c-0.8-0.7-2-1.1-3.4-1.1h-6.9
			V395.2z"/>
	</g>
</g>
</svg>
